<svg xmlns="http://www.w3.org/2000/svg" viewBox="0 0 512 512"><defs><style>.cls-1{fill:#524896;}.cls-2{fill:#766eae;}.cls-3{fill:#cd458f;}.cls-4{fill:#b66196;}.cls-5{fill:#cd6ca5;}.cls-6{fill:#f6ea49;}.cls-7{fill:#b7177d;}.cls-8{fill:#d4c73e;}.cls-9{fill:#c38734;}.cls-10{fill:#db9932;}.cls-11{fill:#f3d49f;}.cls-12{fill:#dcbe91;}.cls-13{fill:#c7ab88;}</style></defs><title>Gifts</title><g id="BULINE"><circle class="cls-1" cx="256" cy="256" r="256"/></g><g id="Icons"><path class="cls-2" d="M512,256a254.82,254.82,0,0,1-28,116.54q-5.64,3.85-11.5,7.42h0l-2.43,1.47A267.87,267.87,0,0,1,394.88,412q-9.93,2.37-20.14,4a270.83,270.83,0,0,1-42.61,3.35,269.28,269.28,0,0,1-176.71-65.91q-4.36-3.76-8.55-7.74a269.8,269.8,0,0,1-84.6-196.21,269.88,269.88,0,0,1,9.49-71.17A256.29,256.29,0,0,1,348.12,17.08a111.31,111.31,0,0,1,19.18-7,138.93,138.93,0,0,1,21.8-3.94,22.18,22.18,0,0,1,15.13,4c10.53,7.55,28.19,25.54,30.28,62.34l2.32,2.29h8.42a10.16,10.16,0,0,1,10.18,10.15V95.48A255,255,0,0,1,512,256Z"/><path class="cls-3" d="M437.47,149.43V362a14.18,14.18,0,0,1-14.17,14.18H169.59A14.18,14.18,0,0,1,155.42,362V149.43Z"/><path class="cls-4" d="M455.43,84.94v54.34a10.16,10.16,0,0,1-10.18,10.15H147.61a10.14,10.14,0,0,1-10.15-10.15V84.94a10.14,10.14,0,0,1,10.15-10.15H445.25A10.16,10.16,0,0,1,455.43,84.94Z"/><path class="cls-5" d="M455.43,84.94v54.34a10.16,10.16,0,0,1-10.18,10.15H234.55a10.14,10.14,0,0,1-10.15-10.15V84.94a10.14,10.14,0,0,1,10.15-10.15h210.7A10.16,10.16,0,0,1,455.43,84.94Z"/><rect class="cls-6" x="258.41" y="74.79" width="81.51" height="74.64"/><path class="cls-7" d="M437.47,170V149.43H155.42V362a14.18,14.18,0,0,0,14.17,14.18h86.94A14.18,14.18,0,0,1,242.36,362V170Z"/><rect class="cls-6" x="258.41" y="149.43" width="81.51" height="226.78"/><rect class="cls-8" x="258.41" y="149.43" width="81.51" height="20.55"/><path class="cls-8" d="M299.15,74.79H163.68c1.47-38.35,19.65-56.92,30.39-64.63a22.19,22.19,0,0,1,15.14-4A139.36,139.36,0,0,1,231,10.1C289.91,25.83,299.15,74.79,299.15,74.79Z"/><path class="cls-6" d="M299.15,74.79H200.53c1.48-38.35,19.65-56.92,30.39-64.63,0,0,.06,0,.09-.06C289.91,25.83,299.15,74.79,299.15,74.79Z"/><path class="cls-8" d="M434.62,74.79H299.15s1.85-9.79,9.16-22c.18-.31.36-.61.56-.92a91,91,0,0,1,39.25-34.77,111.31,111.31,0,0,1,19.18-7,138.93,138.93,0,0,1,21.8-3.94,22.18,22.18,0,0,1,15.13,4c10.53,7.55,28.19,25.54,30.28,62.34C434.55,73.25,434.59,74,434.62,74.79Z"/><path class="cls-6" d="M397.77,74.79H299.15s1.85-9.79,9.16-22c.18-.31.36-.61.56-.92a91,91,0,0,1,39.25-34.77,111.31,111.31,0,0,1,19.18-7l.08.06a68.52,68.52,0,0,1,22.06,27.33C393.87,47.1,397.18,59.35,397.77,74.79Z"/><path class="cls-9" d="M324.06,74.79H274.23a24.92,24.92,0,0,1,24.92-24.92,24.62,24.62,0,0,1,10.41,2.28A24.91,24.91,0,0,1,324.06,74.79Z"/><path class="cls-10" d="M324.06,74.79h-29a24.91,24.91,0,0,1,14.5-22.64A24.91,24.91,0,0,1,324.06,74.79Z"/><path class="cls-11" d="M472.53,377.62c0,.58,0,1.16,0,1.73,0,.21,0,.41,0,.61a.5.5,0,0,1,0,.17v.05c0,.25-.05.5-.08.75a1.23,1.23,0,0,0,0,.19,19.09,19.09,0,0,1-1,4.07.07.07,0,0,1,0,.05h0a19.92,19.92,0,0,1-5.81,8.4l-75.77,64.45A52.2,52.2,0,0,1,356,470.53h-187a34.56,34.56,0,0,0-23.42,9.15l-5.16,4.76a257,257,0,0,1-94-81.46l80.52-78.33,13.35-13c.48-.47,1-.93,1.46-1.38a52.68,52.68,0,0,1,13.71-9,56.34,56.34,0,0,1,22.7-5l64.24-.82,16.05-.2,81.5-1,7.2-.09a23.39,23.39,0,0,1,23.4,23.4c0,.39,0,.79,0,1.17v.06c0,.33,0,.65-.08,1s-.07.73-.13,1.09a5.58,5.58,0,0,1-.09.59c-.05.35-.12.69-.19,1s-.11.51-.18.76c-.09.41-.21.82-.33,1.21l-.15.47c-.18.57-.39,1.12-.62,1.66a4.84,4.84,0,0,1-.21.47,20,20,0,0,1-.95,1.91,2.28,2.28,0,0,1-.17.3,23.35,23.35,0,0,1-20.27,11.72H266.89a8.36,8.36,0,0,0-8.35,8.35,41.28,41.28,0,0,0,14.71,11.13c1.06.49,2.14.92,3.23,1.3.5.18,1,.35,1.52.51l.14,0c1.11.34,2.24.64,3.38.88.54.12,1.09.23,1.64.32l.32.06c.48.08,1,.15,1.46.21l.13,0c.51.07,1,.12,1.54.17l.25,0c.53,0,1.06.08,1.59.1h.2c.54,0,1.09,0,1.63,0h84.88l62.31-9.94,9.9-1.58a19.87,19.87,0,0,1,15.25,3.87c.4.32.78.64,1.16,1a6.77,6.77,0,0,1,.56.52,19.87,19.87,0,0,1,5,7.83l2.18,6.35a19.55,19.55,0,0,1,.92,4C472.47,376.59,472.51,377.1,472.53,377.62Z"/><path class="cls-12" d="M370.51,317.48c0,.39,0,.79,0,1.17v.06c0,.33,0,.65-.08,1s-.07.73-.13,1.09a5.58,5.58,0,0,1-.09.59c-.05.35-.12.69-.19,1s-.11.51-.18.76c-.09.41-.21.82-.33,1.21l-.15.47c-.18.57-.39,1.12-.62,1.66a4.84,4.84,0,0,1-.21.47,20,20,0,0,1-.95,1.91c-.05.1-.1.2-.16.3h0a23,23,0,0,0-7.47-2.71,22.5,22.5,0,0,0-4.13-.37l-15.87.2-3.78.05-77.72,1-16.05.2-55.58.71a55.6,55.6,0,0,0-31.36,10,51.56,51.56,0,0,0-5,4.06c-.49.45-1,.91-1.46,1.38l-2,2-82.42,80.2A255.86,255.86,0,0,1,46.38,403l80.52-78.33,13.35-13c.48-.47,1-.93,1.46-1.38a52.68,52.68,0,0,1,13.71-9,56.34,56.34,0,0,1,22.7-5l64.24-.82,16.05-.2,81.5-1,7.2-.09a23.39,23.39,0,0,1,23.4,23.4Z"/><path class="cls-12" d="M258.55,362.82a41.43,41.43,0,0,0,31.74,14.8h84.87l72.21-11.51a19.88,19.88,0,0,1,21.95,13.19l2,5.94a19.85,19.85,0,0,0,.14-13.18l-2.17-6.35a19.9,19.9,0,0,0-21.95-13.2L375.16,364H290.29a41.4,41.4,0,0,1-26-9.15A8.38,8.38,0,0,0,258.55,362.82Z"/><path class="cls-12" d="M450.39,373l-60.41,35H324a4,4,0,0,0-4,4h0a4,4,0,0,0,4,4h65L451.05,374A.62.62,0,0,0,450.39,373Z"/><path class="cls-12" d="M450.31,392.78,396,436.6l-65.23,10.11a4,4,0,0,0-3.34,4.56h0a4,4,0,0,0,4.57,3.34l64.23-9.95,54.93-50.93A.63.63,0,0,0,450.31,392.78Z"/><path class="cls-13" d="M345.8,303h11.44a2.67,2.67,0,0,1,2.67,2.67v22a2.67,2.67,0,0,1-2.67,2.67H345.8a13.67,13.67,0,0,1-13.67-13.67v0A13.67,13.67,0,0,1,345.8,303Z"/></g></svg>